<svg width="230" height="230" viewBox="0 0 230 230" fill="none" xmlns="http://www.w3.org/2000/svg">
<path d="M138.958 62.2917C146.023 63.67 153.035 66.7855 158.125 71.875C163.214 76.9645 166.33 83.9772 167.708 91.0417M143.75 28.75C158.427 30.3805 171.635 37.4811 182.083 47.9167C192.532 58.3523 199.601 71.5749 201.25 86.25M201.245 157.901V183.87C201.285 193.797 192.359 202.086 182.337 201.182C95.8338 201.25 28.7505 133.544 28.8182 47.6214C27.9155 37.6524 36.1639 28.7602 46.0782 28.7508H72.0983C76.3075 28.7095 80.3882 30.1971 83.5797 32.9364C92.6534 40.7243 98.4896 67.1578 96.2441 77.666C94.4909 85.8702 86.2208 91.6099 80.5982 97.2214C92.9452 118.893 110.924 136.836 132.638 149.159C138.261 143.547 144.012 135.293 152.233 133.544C162.778 131.299 189.381 137.144 197.138 146.28C199.889 149.52 201.35 153.656 201.245 157.901Z" stroke="#C0B7E8" stroke-width="6" stroke-linecap="round" stroke-linejoin="round"/>
</svg>
